# AST/ASF file generated using VICON BodyLanguage
# -----------------------------------------------
:version 1.10
:name VICON
:units
  mass 1.0
  length 0.45
  angle deg
:documentation
   .ast/.asf automatically generated from VICON data using
   VICON BodyBuilder and BodyLanguage model FoxedUp or BRILLIANT.MOD
:root
   order TX TY TZ RX RY RZ
   axis XYZ
   position 0 0 0  
   orientation 0 0 0 
:bonedata
  begin
     id 1 
     name lhipjoint
     direction 0.653368 -0.678499 0.335782 
     length 2.51848 
     axis 0 0 0  XYZ
  end
  begin
     id 2 
     name lfemur
     direction 0.34202 -0.939693 0  
     length 6.57749  
     axis 0 0 20  XYZ
    dof rx ry rz
    limits (-160.0 20.0)
           (-70.0 70.0)
           (-60.0 70.0)
  end
  begin
     id 3 
     name ltibia
     direction 0.34202 -0.939693 0   
     length 7.94618   
     axis 0 0 20   XYZ
    dof rx
    limits (-10.0 170.0)
  end
  begin
     id 4 
     name lfoot
     direction 0.0811271 -0.222895 0.971461   
     length 2.31339   
     axis -90 7.62852e-016 20   XYZ
    dof rx rz
    limits (-45.0 90.0)
           (-70.0 20.0)
  end
  begin
     id 5 
     name ltoes
     direction 1.53568e-011 -4.21885e-011 1   
     length 1.15935   
     axis -90 7.62852e-016 20   XYZ
    dof rx
    limits (-90.0 20.0)
  end
  begin
     id 6 
     name rhipjoint
     direction -0.640058 -0.688614 0.340788   
     length 2.48149  
     axis 0 0 0  XYZ 
  end
  begin
     id 7 
     name rfemur
     direction -0.34202 -0.939693 0   
     length 6.57875   
     axis 0 0 -20   XYZ
    dof rx ry rz
    limits (-160.0 20.0)
           (-70.0 70.0)
           (-70.0 60.0)
  end
  begin
     id 8 
     name rtibia
     direction -0.34202 -0.939693 0   
     length 7.977   
     axis 0 0 -20   XYZ
    dof rx
    limits (-10.0 170.0)
 end
 begin
     id 9 
     name rfoot
     direction -0.0979793 -0.269196 0.958089   
     length 2.19857  
     axis -90 -7.62852e-016 -20   XYZ
    dof rx rz
    limits (-45.0 90.0)
           (-20.0 70.0)
  end
  begin
     id 10 
     name rtoes
     direction -1.53556e-011 -4.21868e-011 1   
     length 1.09838   
     axis -90 -7.62852e-016 -20   XYZ
    dof rx
    limits (-90.0 20.0)
  end
  begin
     id 11 
     name lowerback
     direction 0.0149039 0.998517 -0.0523597   
     length 2.10809   
     axis 0 0 0   XYZ
    dof rx ry rz
    limits (-20.0 45.0)
           (-30.0 30.0)
           (-30.0 30.0)
  end
  begin
     id 12 
     name upperback
     direction -0.00882659 0.999418 -0.0329624   
     length 2.1102   
     axis 0 0 0   XYZ
    dof rx ry rz
    limits (-20.0 45.0)
           (-30.0 30.0)
           (-30.0 30.0)
  end
  begin
     id 13 
     name thorax
     direction -0.0165585 0.999826 -0.0085833   
     length 2.11039   
     axis 0 0 0   XYZ
    dof rx ry rz
    limits (-20.0 45.0)
           (-30.0 30.0)
           (-30.0 30.0)
  end
  begin
     id 14 
     name lowerneck
     direction -0.0130877 0.999911 0.00260353   
     length 1.73253   
     axis 0 0 0   XYZ
    dof rx ry rz
    limits (-20.0 45.0)
           (-30.0 30.0)
           (-30.0 30.0)
  end
  begin
     id 15 
     name upperneck
     direction -0.0348454 0.928205 -0.370435   
     length 1.66692   
     axis 0 0 0   XYZ
    dof rx ry rz
    limits (-20.0 45.0)
           (-30.0 30.0)
           (-30.0 30.0)
  end
  begin
     id 16
     name head
     direction -0.00807754 0.992494 -0.122026  
     length 1.72765  
     axis 0 0 0   XYZ
    dof rx ry rz
    limits (-20.0 45.0)
           (-30.0 30.0)
           (-30.0 30.0)
  end
  begin
     id 17 
     name lclavicle
     direction 0.987582 0.144023 0.0627671  
     length 3.49235  
     axis 0 0 0   XYZ
    dof ry rz
    limits (-20.0 10.0)
           (0.0 20.0)
  end
  begin
     id 18 
     name lhumerus
     direction 1 -4.48958e-011 -1.45183e-018   
     length 5.41917   
     axis 180 -30 -90   XYZ
    dof rx ry rz
    limits (-60.0 90.0)
           (-90.0 90.0)
           (-90.0 90.0)
  end
  begin
     id 19
     name lradius
     direction 1 -4.48999e-011 5.75106e-027   
     length 2.44373   
     axis 180 -30 -90   XYZ
    dof rx
    limits (-10.0 170.0)
  end
  begin
     id 20
     name lwrist
     direction 1 -4.48987e-011 1.53461e-026   
     length 1.22186   
     axis -1.09697e-014 90 90   XYZ
    dof ry
    limits (-180.0 0.0)
 end
  begin
     id 21 
     name lhand
     direction 1 -4.48881e-011 3.06923e-026   
     length 0.727502   
     axis -1.95843e-014 90 90   XYZ
    dof rx rz
    limits (-90.0 90.0)
           (-45.0 45.0)
  end
  begin
     id 22 
     name lfingers
     direction 1 -4.48907e-011 6.13845e-026   
     length 0.586531   
     axis -3.91686e-014 90 90   XYZ
    dof rx
    limits (0.0 90.0)
  end
  begin
     id 23
     name lthumb
     direction 0.707107 -6.3487e-011 0.707107   
     length 0.842145   
     axis -90 45 2.85299e-015   XYZ
    dof rx rz
    limits (-45.0 45.0)
           (-45.0 45.0)
  end
  begin
     id 24 
     name rclavicle
     direction -0.980998 0.169556 0.0943023   
     length 3.29272  
     axis 0 0 0   XYZ 
    dof ry rz
    limits (-10.0 20.0)
           (-20.0 0.0)
  end
  begin
     id 25 
     name rhumerus
     direction -1 -1.83355e-005 2.45537e-005  
     length 5.58976   
     axis 180 30 90   XYZ
    dof rx ry rz
    limits (-90.0 60.0)
           (-90.0 90.0)
           (-90.0 90.0)
  end
  begin
     id 26 
     name rradius
     direction -1 -4.48967e-011 5.97228e-027   
     length 2.4806   
     axis 180 30 90   XYZ
    dof rx
    limits (-10.0 170.0)
  end
  begin
     id 27 
     name rwrist
     direction -1 -4.48963e-011 1.53461e-026   
     length 1.2403   
     axis -1.09697e-014 -90 -90   XYZ
    dof ry
    limits (-180.0 0.0)
  end
  begin
     id 28
     name rhand
     direction -1 -4.48881e-011 3.06923e-026   
     length 0.816009   
     axis -1.95843e-014 -90 -90   XYZ
    dof rx rz
    limits (-90.0 90.0)
           (-45.0 45.0)
  end
  begin
     id 29
     name rfingers
     direction -1 -4.49018e-011 6.13845e-026   
     length 0.657887   
     axis -3.91686e-014 -90 -90   XYZ
    dof rx
    limits (0.0 90.0)
  end
  begin
     id 30
     name rthumb
     direction -0.707107 -6.34872e-011 0.707107   
     length 0.944599   
     axis -90 -45 -2.85299e-015   XYZ
    dof rx rz
    limits (-45.0 45.0)
           (-45.0 45.0)
  end
:hierarchy
  begin
    root lhipjoint rhipjoint lowerback
    lhipjoint lfemur
    lfemur ltibia
    ltibia lfoot
    lfoot ltoes
    rhipjoint rfemur
    rfemur rtibia
    rtibia rfoot
    rfoot rtoes
    lowerback upperback
    upperback thorax
    thorax lowerneck lclavicle rclavicle
    lowerneck upperneck
    upperneck head
    lclavicle lhumerus
    lhumerus lradius
    lradius lwrist
    lwrist lhand lthumb
    lhand lfingers
    rclavicle rhumerus
    rhumerus rradius
    rradius rwrist
    rwrist rhand rthumb
    rhand rfingers
  end

#!OML:ASF F:\VICON\USERDATA\INSTALL\rory3\rory3.ASF
:FULLY-SPECIFIED
:DEGREES
225
root 1.34661 16.6047 28.3181 34.1169 5.78693 -0.12349
lowerback -15.4101 -2.47312 1.96185
upperback -14.218 -3.3278 4.11316
thorax -6.5168 -1.6369 2.97481
lowerneck -14.6833 -0.60662 -0.928017
upperneck 43.5317 -0.0988407 -1.47567
head 19.1399 -0.412337 -0.57476
rclavicle -2.25869e-014 2.22639e-014
rhumerus -13.2094 -15.7942 -8.82499
rradius 24.984
rwrist 6.03178
rhand 18.4784 5.82398
rfingers 7.12502
rthumb 43.115 -18.3812
lclavicle -2.25869e-014 2.22639e-014
lhumerus 42.0471 7.76571 9.4688
lradius 38.3994
lwrist -13.3741
lhand 18.8885 13.3563
lfingers 7.12502
lthumb 43.4983 37.4238
rfemur -56.7546 4.78446 29.5323
rtibia 40.2514
rfoot -49.294 -34.4158
rtoes 41.2892
lfemur -11.6608 -4.96129 -25.18
ltibia 29.4941
lfoot -9.76901 43.222
ltoes 41.656
226
root 1.34154 16.6071 28.3153 34.1864 5.76988 -0.236427
lowerback -15.3467 -2.47876 2.04078
upperback -14.3237 -3.3378 4.10504
thorax -6.67652 -1.64862 2.93091
lowerneck -14.5102 -0.571847 -0.696437
upperneck 43.5674 -0.0195793 -1.72548
head 19.1136 -0.377642 -0.722863
rclavicle -1.50828e-014 -2.38542e-015
rhumerus -13.1473 -16.1294 -8.79024
rradius 24.7006
rwrist 6.58843
rhand 18.6998 6.02283
rfingers 7.12502
rthumb 43.322 -18.1083
lclavicle -1.50828e-014 -2.38542e-015
lhumerus 42.2676 7.92481 9.51812
lradius 38.1943
lwrist -13.9374
lhand 18.9114 13.1116
lfingers 7.12502
lthumb 43.5197 37.1713
rfemur -56.8206 4.50117 29.9032
rtibia 40.1801
rfoot -48.6614 -34.4624
rtoes 40.8181
lfemur -11.7642 -4.87957 -25.0384
ltibia 29.4548
lfoot -9.0186 43.2961
ltoes 41.1485
227
root 1.33636 16.6104 28.3056 34.3178 5.61278 -0.220316
lowerback -15.2748 -2.46155 1.94859
upperback -14.3814 -3.30472 4.04522
thorax -6.77941 -1.62712 2.92831
lowerneck -14.619 -0.552237 -0.580889
upperneck 43.6929 0.0202553 -1.83177
head 19.2268 -0.358117 -0.791734
rclavicle -1.95803e-014 -1.59028e-014
rhumerus -13.2466 -15.6887 -8.78042
rradius 24.772
rwrist 6.33207
rhand 18.6133 6.06902
rfingers 7.12502
rthumb 43.2412 -18.0911
lclavicle -1.95803e-014 -1.59028e-014
lhumerus 42.4499 8.01822 9.31302
lradius 38.1194
lwrist -14.1764
lhand 18.9974 13.1769
lfingers 7.12502
lthumb 43.5999 37.2074
rfemur -56.9992 4.33098 30.0259
rtibia 40.1367
rfoot -48.2074 -34.5352
rtoes 40.3351
lfemur -11.9409 -4.79196 -25.1046
ltibia 29.4154
lfoot -11.6545 43.0047
ltoes 42.9675
228
root 1.33415 16.6109 28.2966 34.4065 5.45371 -0.185762
lowerback -15.3578 -2.45866 1.87753
upperback -14.2778 -3.30517 3.97885
thorax -6.61545 -1.62662 2.88656
lowerneck -14.9248 -0.53077 -0.566719
upperneck 43.7519 0.0377122 -1.79544
head 19.3538 -0.345344 -0.777182
rclavicle 6.80837e-015 1.59028e-015
rhumerus -13.247 -15.6509 -8.81622
rradius 24.8496
rwrist 6.30284
rhand 18.7675 6.08262
rfingers 7.12502
rthumb 43.3853 -18.0258
lclavicle 6.80837e-015 1.59028e-015
lhumerus 42.7375 8.32288 9.04959
lradius 37.8947
lwrist -14.3255
lhand 19.0816 13.1993
lfingers 7.12502
lthumb 43.6786 37.201
rfemur -57.1111 4.06648 30.167
rtibia 40.1116
rfoot -47.7936 -34.4164
rtoes 39.8762
lfemur -12.0439 -4.7352 -25.2196
ltibia 29.3692
lfoot -15.6484 42.3027
ltoes 45.1544
229
root 1.32622 16.6105 28.2903 34.491 5.15592 -0.085518
lowerback -15.4784 -2.47603 1.59873
upperback -14.1454 -3.31486 3.91149
thorax -6.38603 -1.61417 2.95503
lowerneck -15.1646 -0.473678 -0.457015
upperneck 43.7207 0.0895643 -1.79282
head 19.4028 -0.307411 -0.787136
rclavicle 2.18415e-014 -2.8625e-014
rhumerus -13.2792 -15.3643 -8.94485
rradius 25.1084
rwrist 5.85926
rhand 18.7848 5.58272
rfingers 7.12502
rthumb 43.4014 -18.5198
lclavicle 2.18415e-014 -2.8625e-014
lhumerus 43.1527 8.83102 9.1368
lradius 37.4761
lwrist -14.8374
lhand 19.0063 13.1874
lfingers 7.12502
lthumb 43.6083 37.2148
rfemur -57.2531 4.21954 29.9678
rtibia 40.1736
rfoot -47.7811 -34.3263
rtoes 39.8637
lfemur -12.0913 -4.4305 -25.4369
ltibia 29.2218
lfoot -16.4213 42.1531
ltoes 45.4036
230
root 1.31929 16.6109 28.2826 34.5204 4.81213 0.112846
lowerback -15.4239 -2.49373 1.25995
upperback -14.2167 -3.30742 3.79037
thorax -6.48265 -1.58851 3.02161
lowerneck -14.8643 -0.414924 -0.454773
upperneck 43.7555 0.149237 -1.72918
head 19.3395 -0.27517 -0.742978
rclavicle -3.01656e-014 8.74653e-015
rhumerus -13.3827 -15.1601 -8.94566
rradius 25.1214
rwrist 5.83623
rhand 18.8303 5.10717
rfingers 7.12502
rthumb 43.4439 -18.98
lclavicle -3.01656e-014 8.74653e-015
lhumerus 43.4631 8.83457 8.98549
lradius 37.0814
lwrist -15.0238
lhand 19.0594 13.1311
lfingers 7.12502
lthumb 43.6579 37.1403
rfemur -57.383 4.42581 29.5986
rtibia 40.2644
rfoot -47.6938 -34.5991
rtoes 39.5096
lfemur -12.1103 -4.28722 -25.7949
ltibia 29.0378
lfoot -13.7971 42.9916
ltoes 43.5892
231
root 1.32208 16.6106 28.2748 34.507 4.64638 0.351603
lowerback -15.3431 -2.54681 1.07033
upperback -14.3278 -3.35987 3.66598
thorax -6.64568 -1.60496 2.9994
lowerneck -14.3778 -0.382533 -0.459049
upperneck 43.7501 0.187115 -1.71544
head 19.1963 -0.259417 -0.724788
rclavicle -3.89866e-014 9.54166e-015
rhumerus -13.3009 -15.5386 -8.88163
rradius 24.7452
rwrist 6.5196
rhand 18.7843 5.07691
rfingers 7.12502
rthumb 43.4009 -19.0258
lclavicle -3.89866e-014 9.54166e-015
lhumerus 43.6301 8.69548 8.7596
lradius 36.8833
lwrist -15.1141
lhand 19.1003 13.1988
lfingers 7.12502
lthumb 43.6961 37.1941
rfemur -57.4637 3.88708 29.6134
rtibia 40.3603
rfoot -47.1177 -34.4786
rtoes 38.7081
lfemur -12.0485 -4.25499 -26.122
ltibia 28.8903
lfoot -13.7043 43.0934
ltoes 43.4874
232
root 1.32104 16.6112 28.2655 34.4985 4.56877 0.425052
lowerback -15.244 -2.57254 1.00143
upperback -14.3912 -3.38633 3.61125
thorax -6.76859 -1.61472 2.98528
lowerneck -14.1617 -0.390507 -0.489009
upperneck 43.8448 0.184311 -1.72375
head 19.1964 -0.267524 -0.724649
rclavicle -3.27001e-014 1.59028e-014
rhumerus -13.0501 -16.3423 -8.77586
rradius 24.1842
rwrist 7.66792
rhand 18.9409 5.17461
rfingers 7.12502
rthumb 43.5472 -18.8751
lclavicle -3.27001e-014 1.59028e-014
lhumerus 43.8013 8.74469 8.76311
lradius 36.7979
lwrist -15.2308
lhand 19.1323 13.3091
lfingers 7.12502
lthumb 43.7259 37.2934
rfemur -57.4966 3.48835 29.7739
rtibia 40.3576
rfoot -46.742 -34.4321
rtoes 37.4483
lfemur -12.0964 -4.21086 -26.2159
ltibia 28.8829
lfoot -12.8324 43.3145
ltoes 43.0817
233
root 1.31301 16.6152 28.2499 34.4995 4.54993 0.366818
lowerback -15.1276 -2.57459 0.991995
upperback -14.3617 -3.38816 3.58353
thorax -6.79751 -1.61638 2.96488
lowerneck -14.2329 -0.376144 -0.405668
upperneck 43.884 0.185162 -1.7382
head 19.2422 -0.255697 -0.748195
rclavicle 1.17034e-014 7.95139e-016
rhumerus -13.0863 -16.4557 -8.69704
rradius 24.0913
rwrist 7.8726
rhand 19.0067 5.23732
rfingers 7.12502
rthumb 43.6086 -18.79
lclavicle 1.17034e-014 7.95139e-016
lhumerus 44.0122 9.04099 8.79573
lradius 36.7475
lwrist -15.3776
lhand 19.0781 13.291
lfingers 7.12502
lthumb 43.6753 37.2939
rfemur -57.4863 3.79271 29.666
rtibia 40.2696
rfoot -47.2136 -34.4449
rtoes 37.3309
lfemur -12.2917 -4.20413 -26.1031
ltibia 28.9906
lfoot -10.8319 43.8981
ltoes 41.7609
234
root 1.31341 16.6218 28.234 34.365 4.92019 -0.0227333
lowerback -14.9018 -2.55375 1.57739
upperback -14.3233 -3.40682 3.64814
thorax -6.90525 -1.67193 2.7163
lowerneck -14.2803 -0.383434 -0.393947
upperneck 43.9692 0.169919 -1.73833
head 19.3117 -0.26055 -0.755677
rclavicle 1.21259e-014 -1.11319e-014
rhumerus -13.1779 -16.6355 -8.56298
rradius 24.0881
rwrist 8.21222
rhand 19.176 5.44546
rfingers 7.12502
rthumb 43.7667 -18.5239
lclavicle 1.21259e-014 -1.11319e-014
lhumerus 44.2434 9.33125 8.87626
lradius 36.6525
lwrist -15.5434
lhand 19.1959 13.1649
lfingers 7.12502
lthumb 43.7853 37.1274
rfemur -57.2885 3.52305 30.3653
rtibia 40.0884
rfoot -46.7718 -34.5071
rtoes 37.3611
lfemur -12.3764 -4.25453 -25.5027
ltibia 29.2172
lfoot -11.1488 43.868
ltoes 41.9443
